0
SECTION
2
HEADER
9
$INSUNITS
70
4
9
$ACADVER
1
AC1014
9
$HANDSEED
5
FFFF
0
ENDSEC
0
SECTION
2
TABLES
0
TABLE
2
VPORT
5
8
100
AcDbSymbolTable
0
ENDTAB
0
TABLE
2
LTYPE
5
5
100
AcDbSymbolTable
0
LTYPE
5
14
100
AcDbSymbolTableRecord
100
AcDbLinetypeTableRecord
2
BYBLOCK
70
0
0
LTYPE
5
15
100
AcDbSymbolTableRecord
100
AcDbLinetypeTableRecord
2
BYLAYER
70
0
0
LTYPE
5
16
100
AcDbSymbolTableRecord
100
AcDbLinetypeTableRecord
2
DASHED
70
0
3
Dashed __ __ __ __ __ __ __ __ __ __ __ __ __ _
72
65
73
2
40
0.75
49
0.5
74
0
49
-0.25
74
0
0
ENDTAB
0
TABLE
2
LAYER
5
2
100
AcDbSymbolTable
70
2
0
LAYER
5
50
100
AcDbSymbolTableRecord
100
AcDbLayerTableRecord
2
0
70
0
62
7
6
CONTINUOUS
0
ENDTAB
0
TABLE
2
STYLE
5
3
100
AcDbSymbolTable
70
1
0
STYLE
5
11
100
AcDbSymbolTableRecord
100
AcDbTextStyleTableRecord
2
STANDARD
70
0
0
ENDTAB
0
TABLE
2
VIEW
5
6
100
AcDbSymbolTable
70
0
0
ENDTAB
0
TABLE
2
UCS
5
7
100
AcDbSymbolTable
70
0
0
ENDTAB
0
TABLE
2
APPID
5
9
100
AcDbSymbolTable
70
2
0
APPID
5
12
100
AcDbSymbolTableRecord
100
AcDbRegAppTableRecord
2
ACAD
70
0
0
ENDTAB
0
TABLE
2
DIMSTYLE
5
A
100
AcDbSymbolTable
70
1
0
ENDTAB
0
TABLE
2
BLOCK_RECORD
5
1
100
AcDbSymbolTable
70
1
0
BLOCK_RECORD
5
1F
100
AcDbSymbolTableRecord
100
AcDbBlockTableRecord
2
*MODEL_SPACE
0
BLOCK_RECORD
5
1B
100
AcDbSymbolTableRecord
100
AcDbBlockTableRecord
2
*PAPER_SPACE
0
ENDTAB
0
ENDSEC
0
SECTION
2
BLOCKS
0
BLOCK
5
20
100
AcDbEntity
100
AcDbBlockBegin
2
*MODEL_SPACE
0
ENDBLK
5
21
100
AcDbEntity
100
AcDbBlockEnd
0
BLOCK
5
1C
100
AcDbEntity
100
AcDbBlockBegin
2
*PAPER_SPACE
0
ENDBLK
5
1D
100
AcDbEntity
100
AcDbBlockEnd
0
ENDSEC
0
SECTION
2
ENTITIES
0
POINT
5
100
100
AcDbEntity
8
0
100
AcDbPoint
10
0
20
0
30
0
0
POINT
5
101
100
AcDbEntity
8
0
100
AcDbPoint
10
0
20
0
30
0
0
POINT
5
102
100
AcDbEntity
8
0
100
AcDbPoint
10
83.999999999999986
20
100
30
0
0
POINT
5
103
100
AcDbEntity
8
0
100
AcDbPoint
10
-1.0551107362497135e-13
20
100
30
0
0
POINT
5
104
100
AcDbEntity
8
0
100
AcDbPoint
10
41.999999999999993
20
95.25
30
0
0
POINT
5
105
100
AcDbEntity
8
0
100
AcDbPoint
10
4.9999999999998943
20
100
30
0
0
POINT
5
106
100
AcDbEntity
8
0
100
AcDbPoint
10
-4.4771578103683373e-14
20
95
30
0
0
POINT
5
107
100
AcDbEntity
8
0
100
AcDbPoint
10
78.999999999999972
20
100
30
0
0
POINT
5
108
100
AcDbEntity
8
0
100
AcDbPoint
10
83.999999999999986
20
95
30
0
0
POINT
5
109
100
AcDbEntity
8
0
100
AcDbPoint
10
0
20
5
30
0
0
POINT
5
110
100
AcDbEntity
8
0
100
AcDbPoint
10
5
20
0
30
0
0
LINE
5
111
100
AcDbEntity
8
0
100
AcDbLine
10
5.8284271247461898
20
0
30
0
11
68.813487977465996
21
0
31
0
0
LINE
5
112
100
AcDbEntity
8
0
100
AcDbLine
10
83.999999999999986
20
15.186512022533984
30
0
11
83.999999999999986
21
94.171572875253872
31
0
0
LINE
5
113
100
AcDbEntity
8
0
100
AcDbLine
10
78.171572875253787
20
100
30
0
11
5.8284271247460984
21
100
31
0
0
LINE
5
114
100
AcDbEntity
8
0
100
AcDbLine
10
41.999999999999993
20
100
30
0
11
41.999999999999993
21
0
31
0
0
LWPOLYLINE
5
115
100
AcDbEntity
8
0
100
AcDbPolyline
90
4
70
1
43
0.0
10
51.999999999999993
20
96.75
10
32
20
96.75
42
0.99999999999999989
10
32
20
93.75
10
51.999999999999993
20
93.75
42
0.99999999999999989
0
LINE
5
116
100
AcDbEntity
8
0
100
AcDbLine
10
51.999999999999993
20
95.25
30
0
11
32
21
95.25
31
0
6
DASHED
0
LINE
5
117
100
AcDbEntity
8
0
100
AcDbLine
10
4.4142135623730114
20
99.414213562373106
30
0
11
0.58578643762672222
21
95.585786437626751
31
0
0
LINE
5
118
100
AcDbEntity
8
0
100
AcDbLine
10
79.585786437626908
20
99.414213562373078
30
0
11
83.414213562373078
21
95.585786437626936
31
0
0
LINE
5
119
100
AcDbEntity
8
0
100
AcDbLine
10
0.58578643762690508
20
4.414213562373094
30
0
11
4.4142135623730958
21
0.58578643762690519
31
0
0
LINE
5
120
100
AcDbEntity
8
0
100
AcDbLine
10
-1.7332278387415608e-13
20
94.171572875253688
30
0
11
-2.14064876935538e-13
21
66.05807628105488
31
0
0
LINE
5
121
100
AcDbEntity
8
0
100
AcDbLine
10
-1.8443579996585413e-13
20
48.93933982821995
30
0
11
-2.7755575615628914e-16
21
5.8284271247461827
31
0
0
ARC
5
122
100
AcDbEntity
8
0
100
AcDbCircle
10
1.9999999999998268
20
94.171572875253688
30
0
40
1.9999999999999925
210
0
220
0
230
1
100
AcDbArc
50
135.00000000000085
51
180
0
ARC
5
123
100
AcDbEntity
8
0
100
AcDbCircle
10
5.8284271247460984
20
98.000000000000028
30
0
40
1.9999999999999751
210
0
220
-0
230
1
100
AcDbArc
50
90
51
135.0000000000002
0
ARC
5
124
100
AcDbEntity
8
0
100
AcDbCircle
10
78.171572875253787
20
97.999999999999972
30
0
40
2.0000000000000275
210
0
220
-0
230
1
100
AcDbArc
50
44.999999999999709
51
90
0
ARC
5
125
100
AcDbEntity
8
0
100
AcDbCircle
10
82.000000000000028
20
94.171572875253858
30
0
40
1.9999999999999574
210
0
220
-0
230
1
100
AcDbArc
50
0
51
45.000000000000568
0
ARC
5
126
100
AcDbEntity
8
0
100
AcDbCircle
10
5.8284271247461881
20
1.9999999999999949
30
0
40
1.9999999999999947
210
0
220
0
230
1
100
AcDbArc
50
224.99999999999997
51
270.00000000000006
0
ARC
5
127
100
AcDbEntity
8
0
100
AcDbCircle
10
1.9999999999999987
20
5.8284271247461898
30
0
40
1.9999999999999991
210
0
220
0
230
1
100
AcDbArc
50
180
51
225.00000000000006
0
ARC
5
128
100
AcDbEntity
8
0
100
AcDbCircle
10
68.813487977465996
20
15.186512022533982
30
0
40
15.186512022533982
210
0
220
0
230
1
100
AcDbArc
50
-90
51
0
0
LINE
5
129
100
AcDbEntity
8
0
100
AcDbLine
10
0
20
76.000001132488251
30
0
11
-1.5763442955027512e-13
21
43.000000640749931
31
0
0
ENDSEC
0
SECTION
2
OBJECTS
0
DICTIONARY
5
C
100
AcDbDictionary
3
ACAD_GROUP
350
D
3
ACAD_MLINESTYLE
350
17
0
DICTIONARY
5
D
100
AcDbDictionary
0
DICTIONARY
5
1A
330
C
100
AcDbDictionary
0
DICTIONARY
5
17
100
AcDbDictionary
0
ENDSEC
0
EOF
