ISO-10303-21;
HEADER;
/* Generated by software containing ST-Developer
 * from STEP Tools, Inc. (www.steptools.com) 
 */

FILE_DESCRIPTION(
/* description */ ('NOT SPECIFIED'),
/* implementation_level */ '2;1');

FILE_NAME(
/* name */ '2_7INCH-E_PAPER.step',
/* time_stamp */ '2026-06-07T19:35:18-04:00',
/* author */ (''),
/* organization */ (''),
/* preprocessor_version */ 'ST-DEVELOPER v20.1',
/* originating_system */ 'Autodesk Translation Framework v15.8.0.0',
/* authorisation */ '');

FILE_SCHEMA (('AUTOMOTIVE_DESIGN { 1 0 10303 214 3 1 1 }'));
ENDSEC;

DATA;
#10=MECHANICAL_DESIGN_GEOMETRIC_PRESENTATION_REPRESENTATION('',(#13),#1014);
#11=SHAPE_REPRESENTATION_RELATIONSHIP('SRR','None',#1021,#12);
#12=ADVANCED_BREP_SHAPE_REPRESENTATION('',(#14),#1013);
#13=STYLED_ITEM('',(#1031),#14);
#14=MANIFOLD_SOLID_BREP('Body1',#612);
#15=CYLINDRICAL_SURFACE('',#646,0.5);
#16=CYLINDRICAL_SURFACE('',#654,1.);
#17=CYLINDRICAL_SURFACE('',#656,0.5);
#18=CYLINDRICAL_SURFACE('',#662,0.6);
#19=CYLINDRICAL_SURFACE('',#664,0.6);
#20=CYLINDRICAL_SURFACE('',#666,0.74);
#21=CYLINDRICAL_SURFACE('',#668,0.74);
#22=CIRCLE('',#638,0.6);
#23=CIRCLE('',#639,0.6);
#24=CIRCLE('',#640,0.74);
#25=CIRCLE('',#641,0.74);
#26=CIRCLE('',#643,0.5);
#27=CIRCLE('',#644,1.);
#28=CIRCLE('',#645,0.5);
#29=CIRCLE('',#647,0.5);
#30=CIRCLE('',#649,0.5);
#31=CIRCLE('',#650,1.);
#32=CIRCLE('',#658,0.74);
#33=CIRCLE('',#659,0.74);
#34=CIRCLE('',#660,0.6);
#35=CIRCLE('',#661,0.6);
#36=FACE_BOUND('',#72,.T.);
#37=FACE_OUTER_BOUND('',#69,.T.);
#38=FACE_OUTER_BOUND('',#70,.T.);
#39=FACE_OUTER_BOUND('',#71,.T.);
#40=FACE_OUTER_BOUND('',#73,.T.);
#41=FACE_OUTER_BOUND('',#74,.T.);
#42=FACE_OUTER_BOUND('',#75,.T.);
#43=FACE_OUTER_BOUND('',#76,.T.);
#44=FACE_OUTER_BOUND('',#77,.T.);
#45=FACE_OUTER_BOUND('',#78,.T.);
#46=FACE_OUTER_BOUND('',#79,.T.);
#47=FACE_OUTER_BOUND('',#80,.T.);
#48=FACE_OUTER_BOUND('',#81,.T.);
#49=FACE_OUTER_BOUND('',#82,.T.);
#50=FACE_OUTER_BOUND('',#83,.T.);
#51=FACE_OUTER_BOUND('',#84,.T.);
#52=FACE_OUTER_BOUND('',#85,.T.);
#53=FACE_OUTER_BOUND('',#86,.T.);
#54=FACE_OUTER_BOUND('',#87,.T.);
#55=FACE_OUTER_BOUND('',#88,.T.);
#56=FACE_OUTER_BOUND('',#89,.T.);
#57=FACE_OUTER_BOUND('',#90,.T.);
#58=FACE_OUTER_BOUND('',#91,.T.);
#59=FACE_OUTER_BOUND('',#92,.T.);
#60=FACE_OUTER_BOUND('',#93,.T.);
#61=FACE_OUTER_BOUND('',#94,.T.);
#62=FACE_OUTER_BOUND('',#95,.T.);
#63=FACE_OUTER_BOUND('',#96,.T.);
#64=FACE_OUTER_BOUND('',#97,.T.);
#65=FACE_OUTER_BOUND('',#98,.T.);
#66=FACE_OUTER_BOUND('',#99,.T.);
#67=FACE_OUTER_BOUND('',#100,.T.);
#68=FACE_OUTER_BOUND('',#101,.T.);
#69=EDGE_LOOP('',(#385,#386,#387,#388));
#70=EDGE_LOOP('',(#389,#390,#391,#392,#393));
#71=EDGE_LOOP('',(#394,#395,#396,#397));
#72=EDGE_LOOP('',(#398,#399,#400,#401));
#73=EDGE_LOOP('',(#402,#403,#404,#405));
#74=EDGE_LOOP('',(#406,#407,#408,#409));
#75=EDGE_LOOP('',(#410,#411,#412,#413));
#76=EDGE_LOOP('',(#414,#415,#416,#417));
#77=EDGE_LOOP('',(#418,#419,#420,#421));
#78=EDGE_LOOP('',(#422,#423,#424,#425,#426,#427));
#79=EDGE_LOOP('',(#428,#429,#430,#431,#432,#433,#434,#435));
#80=EDGE_LOOP('',(#436,#437,#438,#439));
#81=EDGE_LOOP('',(#440,#441,#442,#443,#444,#445,#446,#447,#448,#449,#450,
#451));
#82=EDGE_LOOP('',(#452,#453,#454,#455,#456,#457,#458,#459,#460,#461,#462));
#83=EDGE_LOOP('',(#463,#464,#465,#466));
#84=EDGE_LOOP('',(#467,#468,#469,#470,#471,#472,#473,#474,#475,#476,#477));
#85=EDGE_LOOP('',(#478,#479,#480,#481));
#86=EDGE_LOOP('',(#482,#483,#484,#485));
#87=EDGE_LOOP('',(#486,#487,#488,#489));
#88=EDGE_LOOP('',(#490,#491,#492,#493));
#89=EDGE_LOOP('',(#494,#495,#496,#497));
#90=EDGE_LOOP('',(#498,#499,#500,#501));
#91=EDGE_LOOP('',(#502,#503,#504,#505,#506,#507,#508,#509,#510,#511,#512,
#513));
#92=EDGE_LOOP('',(#514,#515,#516,#517));
#93=EDGE_LOOP('',(#518,#519,#520,#521));
#94=EDGE_LOOP('',(#522,#523,#524,#525));
#95=EDGE_LOOP('',(#526,#527,#528,#529));
#96=EDGE_LOOP('',(#530,#531,#532,#533));
#97=EDGE_LOOP('',(#534,#535,#536,#537));
#98=EDGE_LOOP('',(#538,#539,#540,#541));
#99=EDGE_LOOP('',(#542,#543,#544,#545));
#100=EDGE_LOOP('',(#546,#547,#548,#549,#550));
#101=EDGE_LOOP('',(#551,#552,#553,#554));
#102=LINE('',#841,#173);
#103=LINE('',#843,#174);
#104=LINE('',#845,#175);
#105=LINE('',#846,#176);
#106=LINE('',#850,#177);
#107=LINE('',#851,#178);
#108=LINE('',#853,#179);
#109=LINE('',#854,#180);
#110=LINE('',#857,#181);
#111=LINE('',#859,#182);
#112=LINE('',#860,#183);
#113=LINE('',#863,#184);
#114=LINE('',#865,#185);
#115=LINE('',#867,#186);
#116=LINE('',#868,#187);
#117=LINE('',#872,#188);
#118=LINE('',#873,#189);
#119=LINE('',#874,#190);
#120=LINE('',#877,#191);
#121=LINE('',#879,#192);
#122=LINE('',#880,#193);
#123=LINE('',#882,#194);
#124=LINE('',#884,#195);
#125=LINE('',#889,#196);
#126=LINE('',#890,#197);
#127=LINE('',#892,#198);
#128=LINE('',#893,#199);
#129=LINE('',#897,#200);
#130=LINE('',#898,#201);
#131=LINE('',#899,#202);
#132=LINE('',#900,#203);
#133=LINE('',#903,#204);
#134=LINE('',#905,#205);
#135=LINE('',#906,#206);
#136=LINE('',#910,#207);
#137=LINE('',#914,#208);
#138=LINE('',#917,#209);
#139=LINE('',#921,#210);
#140=LINE('',#925,#211);
#141=LINE('',#926,#212);
#142=LINE('',#932,#213);
#143=LINE('',#934,#214);
#144=LINE('',#936,#215);
#145=LINE('',#940,#216);
#146=LINE('',#944,#217);
#147=LINE('',#945,#218);
#148=LINE('',#946,#219);
#149=LINE('',#951,#220);
#150=LINE('',#952,#221);
#151=LINE('',#954,#222);
#152=LINE('',#956,#223);
#153=LINE('',#958,#224);
#154=LINE('',#962,#225);
#155=LINE('',#966,#226);
#156=LINE('',#968,#227);
#157=LINE('',#969,#228);
#158=LINE('',#971,#229);
#159=LINE('',#973,#230);
#160=LINE('',#975,#231);
#161=LINE('',#977,#232);
#162=LINE('',#979,#233);
#163=LINE('',#981,#234);
#164=LINE('',#986,#235);
#165=LINE('',#989,#236);
#166=LINE('',#993,#237);
#167=LINE('',#996,#238);
#168=LINE('',#998,#239);
#169=LINE('',#1001,#240);
#170=LINE('',#1003,#241);
#171=LINE('',#1005,#242);
#172=LINE('',#1009,#243);
#173=VECTOR('',#676,70.42);
#174=VECTOR('',#677,45.8);
#175=VECTOR('',#678,70.42);
#176=VECTOR('',#679,45.8);
#177=VECTOR('',#682,65.42);
#178=VECTOR('',#683,1.);
#179=VECTOR('',#684,0.6);
#180=VECTOR('',#685,5.01597448159388);
#181=VECTOR('',#688,45.8);
#182=VECTOR('',#689,65.42);
#183=VECTOR('',#690,45.8);
#184=VECTOR('',#691,38.19);
#185=VECTOR('',#692,57.29);
#186=VECTOR('',#693,38.19);
#187=VECTOR('',#694,57.29);
#188=VECTOR('',#697,38.19);
#189=VECTOR('',#698,0.025);
#190=VECTOR('',#699,0.025);
#191=VECTOR('',#702,57.29);
#192=VECTOR('',#703,38.19);
#193=VECTOR('',#704,57.29);
#194=VECTOR('',#707,0.025);
#195=VECTOR('',#710,0.025);
#196=VECTOR('',#715,17.54);
#197=VECTOR('',#716,5.01597448159388);
#198=VECTOR('',#717,15.26);
#199=VECTOR('',#718,13.);
#200=VECTOR('',#721,13.);
#201=VECTOR('',#722,0.14);
#202=VECTOR('',#723,0.6);
#203=VECTOR('',#724,0.14);
#204=VECTOR('',#727,0.05999999999999);
#205=VECTOR('',#728,13.);
#206=VECTOR('',#729,0.05999999999999);
#207=VECTOR('',#732,0.2695797803363);
#208=VECTOR('',#735,1.96);
#209=VECTOR('',#738,0.06);
#210=VECTOR('',#741,1.96);
#211=VECTOR('',#744,0.2695797803363);
#212=VECTOR('',#745,0.14);
#213=VECTOR('',#750,17.24542021966);
#214=VECTOR('',#751,12.5);
#215=VECTOR('',#752,9.5);
#216=VECTOR('',#755,9.);
#217=VECTOR('',#758,7.015);
#218=VECTOR('',#759,13.);
#219=VECTOR('',#760,9.5);
#220=VECTOR('',#765,0.14);
#221=VECTOR('',#766,0.14);
#222=VECTOR('',#769,9.5);
#223=VECTOR('',#770,13.);
#224=VECTOR('',#771,7.015);
#225=VECTOR('',#774,9.);
#226=VECTOR('',#777,9.5);
#227=VECTOR('',#778,12.5);
#228=VECTOR('',#779,17.24542021966);
#229=VECTOR('',#782,0.14);
#230=VECTOR('',#785,0.14);
#231=VECTOR('',#788,0.14);
#232=VECTOR('',#791,0.14);
#233=VECTOR('',#794,0.14);
#234=VECTOR('',#797,0.14);
#235=VECTOR('',#802,1.96);
#236=VECTOR('',#805,0.05999999999999);
#237=VECTOR('',#808,1.96);
#238=VECTOR('',#813,13.);
#239=VECTOR('',#816,13.);
#240=VECTOR('',#821,13.);
#241=VECTOR('',#824,13.);
#242=VECTOR('',#827,13.);
#243=VECTOR('',#834,1.);
#244=VERTEX_POINT('',#839);
#245=VERTEX_POINT('',#840);
#246=VERTEX_POINT('',#842);
#247=VERTEX_POINT('',#844);
#248=VERTEX_POINT('',#848);
#249=VERTEX_POINT('',#849);
#250=VERTEX_POINT('',#852);
#251=VERTEX_POINT('',#856);
#252=VERTEX_POINT('',#858);
#253=VERTEX_POINT('',#861);
#254=VERTEX_POINT('',#862);
#255=VERTEX_POINT('',#864);
#256=VERTEX_POINT('',#866);
#257=VERTEX_POINT('',#870);
#258=VERTEX_POINT('',#871);
#259=VERTEX_POINT('',#876);
#260=VERTEX_POINT('',#878);
#261=VERTEX_POINT('',#887);
#262=VERTEX_POINT('',#888);
#263=VERTEX_POINT('',#891);
#264=VERTEX_POINT('',#895);
#265=VERTEX_POINT('',#896);
#266=VERTEX_POINT('',#902);
#267=VERTEX_POINT('',#904);
#268=VERTEX_POINT('',#908);
#269=VERTEX_POINT('',#909);
#270=VERTEX_POINT('',#911);
#271=VERTEX_POINT('',#913);
#272=VERTEX_POINT('',#916);
#273=VERTEX_POINT('',#918);
#274=VERTEX_POINT('',#920);
#275=VERTEX_POINT('',#922);
#276=VERTEX_POINT('',#924);
#277=VERTEX_POINT('',#928);
#278=VERTEX_POINT('',#929);
#279=VERTEX_POINT('',#931);
#280=VERTEX_POINT('',#933);
#281=VERTEX_POINT('',#935);
#282=VERTEX_POINT('',#937);
#283=VERTEX_POINT('',#939);
#284=VERTEX_POINT('',#941);
#285=VERTEX_POINT('',#943);
#286=VERTEX_POINT('',#948);
#287=VERTEX_POINT('',#949);
#288=VERTEX_POINT('',#955);
#289=VERTEX_POINT('',#957);
#290=VERTEX_POINT('',#959);
#291=VERTEX_POINT('',#961);
#292=VERTEX_POINT('',#963);
#293=VERTEX_POINT('',#965);
#294=VERTEX_POINT('',#967);
#295=VERTEX_POINT('',#983);
#296=VERTEX_POINT('',#985);
#297=VERTEX_POINT('',#987);
#298=VERTEX_POINT('',#990);
#299=VERTEX_POINT('',#992);
#300=EDGE_CURVE('',#244,#245,#102,.T.);
#301=EDGE_CURVE('',#246,#244,#103,.T.);
#302=EDGE_CURVE('',#247,#246,#104,.T.);
#303=EDGE_CURVE('',#245,#247,#105,.T.);
#304=EDGE_CURVE('',#248,#249,#106,.T.);
#305=EDGE_CURVE('',#244,#248,#107,.T.);
#306=EDGE_CURVE('',#245,#250,#108,.T.);
#307=EDGE_CURVE('',#250,#249,#109,.T.);
#308=EDGE_CURVE('',#249,#251,#110,.T.);
#309=EDGE_CURVE('',#251,#252,#111,.T.);
#310=EDGE_CURVE('',#252,#248,#112,.T.);
#311=EDGE_CURVE('',#253,#254,#113,.T.);
#312=EDGE_CURVE('',#254,#255,#114,.T.);
#313=EDGE_CURVE('',#255,#256,#115,.T.);
#314=EDGE_CURVE('',#256,#253,#116,.T.);
#315=EDGE_CURVE('',#257,#258,#117,.T.);
#316=EDGE_CURVE('',#258,#254,#118,.T.);
#317=EDGE_CURVE('',#257,#253,#119,.T.);
#318=EDGE_CURVE('',#259,#257,#120,.T.);
#319=EDGE_CURVE('',#259,#260,#121,.T.);
#320=EDGE_CURVE('',#260,#258,#122,.T.);
#321=EDGE_CURVE('',#260,#255,#123,.T.);
#322=EDGE_CURVE('',#259,#256,#124,.T.);
#323=EDGE_CURVE('',#261,#262,#125,.T.);
#324=EDGE_CURVE('',#251,#262,#126,.T.);
#325=EDGE_CURVE('',#250,#263,#127,.T.);
#326=EDGE_CURVE('',#263,#261,#128,.T.);
#327=EDGE_CURVE('',#264,#265,#129,.T.);
#328=EDGE_CURVE('',#264,#263,#130,.T.);
#329=EDGE_CURVE('',#247,#262,#131,.T.);
#330=EDGE_CURVE('',#265,#261,#132,.T.);
#331=EDGE_CURVE('',#266,#265,#133,.T.);
#332=EDGE_CURVE('',#266,#267,#134,.T.);
#333=EDGE_CURVE('',#267,#264,#135,.T.);
#334=EDGE_CURVE('',#268,#269,#136,.T.);
#335=EDGE_CURVE('',#270,#268,#22,.T.);
#336=EDGE_CURVE('',#270,#271,#137,.T.);
#337=EDGE_CURVE('',#266,#271,#23,.T.);
#338=EDGE_CURVE('',#261,#272,#138,.T.);
#339=EDGE_CURVE('',#272,#273,#24,.T.);
#340=EDGE_CURVE('',#273,#274,#139,.T.);
#341=EDGE_CURVE('',#274,#275,#25,.T.);
#342=EDGE_CURVE('',#275,#276,#140,.T.);
#343=EDGE_CURVE('',#276,#269,#141,.T.);
#344=EDGE_CURVE('',#277,#278,#26,.T.);
#345=EDGE_CURVE('',#279,#278,#142,.T.);
#346=EDGE_CURVE('',#279,#280,#143,.T.);
#347=EDGE_CURVE('',#280,#281,#144,.T.);
#348=EDGE_CURVE('',#281,#282,#27,.T.);
#349=EDGE_CURVE('',#283,#282,#145,.T.);
#350=EDGE_CURVE('',#283,#284,#28,.T.);
#351=EDGE_CURVE('',#284,#285,#146,.T.);
#352=EDGE_CURVE('',#268,#285,#147,.T.);
#353=EDGE_CURVE('',#277,#269,#148,.T.);
#354=EDGE_CURVE('',#286,#287,#29,.T.);
#355=EDGE_CURVE('',#278,#286,#149,.T.);
#356=EDGE_CURVE('',#277,#287,#150,.T.);
#357=EDGE_CURVE('',#287,#276,#151,.T.);
#358=EDGE_CURVE('',#275,#288,#152,.T.);
#359=EDGE_CURVE('',#288,#289,#153,.T.);
#360=EDGE_CURVE('',#289,#290,#30,.T.);
#361=EDGE_CURVE('',#290,#291,#154,.T.);
#362=EDGE_CURVE('',#291,#292,#31,.T.);
#363=EDGE_CURVE('',#293,#292,#155,.T.);
#364=EDGE_CURVE('',#294,#293,#156,.T.);
#365=EDGE_CURVE('',#286,#294,#157,.T.);
#366=EDGE_CURVE('',#294,#279,#158,.T.);
#367=EDGE_CURVE('',#293,#280,#159,.T.);
#368=EDGE_CURVE('',#292,#281,#160,.T.);
#369=EDGE_CURVE('',#291,#282,#161,.T.);
#370=EDGE_CURVE('',#283,#290,#162,.T.);
#371=EDGE_CURVE('',#284,#289,#163,.T.);
#372=EDGE_CURVE('',#295,#288,#32,.T.);
#373=EDGE_CURVE('',#296,#295,#164,.T.);
#374=EDGE_CURVE('',#297,#296,#33,.T.);
#375=EDGE_CURVE('',#263,#297,#165,.T.);
#376=EDGE_CURVE('',#298,#267,#34,.T.);
#377=EDGE_CURVE('',#299,#298,#166,.T.);
#378=EDGE_CURVE('',#285,#299,#35,.T.);
#379=EDGE_CURVE('',#270,#299,#167,.T.);
#380=EDGE_CURVE('',#271,#298,#168,.T.);
#381=EDGE_CURVE('',#272,#297,#169,.T.);
#382=EDGE_CURVE('',#273,#296,#170,.T.);
#383=EDGE_CURVE('',#274,#295,#171,.T.);
#384=EDGE_CURVE('',#246,#252,#172,.T.);
#385=ORIENTED_EDGE('',*,*,#300,.F.);
#386=ORIENTED_EDGE('',*,*,#301,.F.);
#387=ORIENTED_EDGE('',*,*,#302,.F.);
#388=ORIENTED_EDGE('',*,*,#303,.F.);
#389=ORIENTED_EDGE('',*,*,#304,.F.);
#390=ORIENTED_EDGE('',*,*,#305,.F.);
#391=ORIENTED_EDGE('',*,*,#300,.T.);
#392=ORIENTED_EDGE('',*,*,#306,.T.);
#393=ORIENTED_EDGE('',*,*,#307,.T.);
#394=ORIENTED_EDGE('',*,*,#308,.T.);
#395=ORIENTED_EDGE('',*,*,#309,.T.);
#396=ORIENTED_EDGE('',*,*,#310,.T.);
#397=ORIENTED_EDGE('',*,*,#304,.T.);
#398=ORIENTED_EDGE('',*,*,#311,.T.);
#399=ORIENTED_EDGE('',*,*,#312,.T.);
#400=ORIENTED_EDGE('',*,*,#313,.T.);
#401=ORIENTED_EDGE('',*,*,#314,.T.);
#402=ORIENTED_EDGE('',*,*,#315,.T.);
#403=ORIENTED_EDGE('',*,*,#316,.T.);
#404=ORIENTED_EDGE('',*,*,#311,.F.);
#405=ORIENTED_EDGE('',*,*,#317,.F.);
#406=ORIENTED_EDGE('',*,*,#315,.F.);
#407=ORIENTED_EDGE('',*,*,#318,.F.);
#408=ORIENTED_EDGE('',*,*,#319,.T.);
#409=ORIENTED_EDGE('',*,*,#320,.T.);
#410=ORIENTED_EDGE('',*,*,#320,.F.);
#411=ORIENTED_EDGE('',*,*,#321,.T.);
#412=ORIENTED_EDGE('',*,*,#312,.F.);
#413=ORIENTED_EDGE('',*,*,#316,.F.);
#414=ORIENTED_EDGE('',*,*,#319,.F.);
#415=ORIENTED_EDGE('',*,*,#322,.T.);
#416=ORIENTED_EDGE('',*,*,#313,.F.);
#417=ORIENTED_EDGE('',*,*,#321,.F.);
#418=ORIENTED_EDGE('',*,*,#318,.T.);
#419=ORIENTED_EDGE('',*,*,#317,.T.);
#420=ORIENTED_EDGE('',*,*,#314,.F.);
#421=ORIENTED_EDGE('',*,*,#322,.F.);
#422=ORIENTED_EDGE('',*,*,#323,.T.);
#423=ORIENTED_EDGE('',*,*,#324,.F.);
#424=ORIENTED_EDGE('',*,*,#308,.F.);
#425=ORIENTED_EDGE('',*,*,#307,.F.);
#426=ORIENTED_EDGE('',*,*,#325,.T.);
#427=ORIENTED_EDGE('',*,*,#326,.T.);
#428=ORIENTED_EDGE('',*,*,#327,.F.);
#429=ORIENTED_EDGE('',*,*,#328,.T.);
#430=ORIENTED_EDGE('',*,*,#325,.F.);
#431=ORIENTED_EDGE('',*,*,#306,.F.);
#432=ORIENTED_EDGE('',*,*,#303,.T.);
#433=ORIENTED_EDGE('',*,*,#329,.T.);
#434=ORIENTED_EDGE('',*,*,#323,.F.);
#435=ORIENTED_EDGE('',*,*,#330,.F.);
#436=ORIENTED_EDGE('',*,*,#331,.F.);
#437=ORIENTED_EDGE('',*,*,#332,.T.);
#438=ORIENTED_EDGE('',*,*,#333,.T.);
#439=ORIENTED_EDGE('',*,*,#327,.T.);
#440=ORIENTED_EDGE('',*,*,#334,.F.);
#441=ORIENTED_EDGE('',*,*,#335,.F.);
#442=ORIENTED_EDGE('',*,*,#336,.T.);
#443=ORIENTED_EDGE('',*,*,#337,.F.);
#444=ORIENTED_EDGE('',*,*,#331,.T.);
#445=ORIENTED_EDGE('',*,*,#330,.T.);
#446=ORIENTED_EDGE('',*,*,#338,.T.);
#447=ORIENTED_EDGE('',*,*,#339,.T.);
#448=ORIENTED_EDGE('',*,*,#340,.T.);
#449=ORIENTED_EDGE('',*,*,#341,.T.);
#450=ORIENTED_EDGE('',*,*,#342,.T.);
#451=ORIENTED_EDGE('',*,*,#343,.T.);
#452=ORIENTED_EDGE('',*,*,#344,.T.);
#453=ORIENTED_EDGE('',*,*,#345,.F.);
#454=ORIENTED_EDGE('',*,*,#346,.T.);
#455=ORIENTED_EDGE('',*,*,#347,.T.);
#456=ORIENTED_EDGE('',*,*,#348,.T.);
#457=ORIENTED_EDGE('',*,*,#349,.F.);
#458=ORIENTED_EDGE('',*,*,#350,.T.);
#459=ORIENTED_EDGE('',*,*,#351,.T.);
#460=ORIENTED_EDGE('',*,*,#352,.F.);
#461=ORIENTED_EDGE('',*,*,#334,.T.);
#462=ORIENTED_EDGE('',*,*,#353,.F.);
#463=ORIENTED_EDGE('',*,*,#354,.F.);
#464=ORIENTED_EDGE('',*,*,#355,.F.);
#465=ORIENTED_EDGE('',*,*,#344,.F.);
#466=ORIENTED_EDGE('',*,*,#356,.T.);
#467=ORIENTED_EDGE('',*,*,#354,.T.);
#468=ORIENTED_EDGE('',*,*,#357,.T.);
#469=ORIENTED_EDGE('',*,*,#342,.F.);
#470=ORIENTED_EDGE('',*,*,#358,.T.);
#471=ORIENTED_EDGE('',*,*,#359,.T.);
#472=ORIENTED_EDGE('',*,*,#360,.T.);
#473=ORIENTED_EDGE('',*,*,#361,.T.);
#474=ORIENTED_EDGE('',*,*,#362,.T.);
#475=ORIENTED_EDGE('',*,*,#363,.F.);
#476=ORIENTED_EDGE('',*,*,#364,.F.);
#477=ORIENTED_EDGE('',*,*,#365,.F.);
#478=ORIENTED_EDGE('',*,*,#355,.T.);
#479=ORIENTED_EDGE('',*,*,#365,.T.);
#480=ORIENTED_EDGE('',*,*,#366,.T.);
#481=ORIENTED_EDGE('',*,*,#345,.T.);
#482=ORIENTED_EDGE('',*,*,#367,.T.);
#483=ORIENTED_EDGE('',*,*,#346,.F.);
#484=ORIENTED_EDGE('',*,*,#366,.F.);
#485=ORIENTED_EDGE('',*,*,#364,.T.);
#486=ORIENTED_EDGE('',*,*,#368,.T.);
#487=ORIENTED_EDGE('',*,*,#347,.F.);
#488=ORIENTED_EDGE('',*,*,#367,.F.);
#489=ORIENTED_EDGE('',*,*,#363,.T.);
#490=ORIENTED_EDGE('',*,*,#369,.T.);
#491=ORIENTED_EDGE('',*,*,#348,.F.);
#492=ORIENTED_EDGE('',*,*,#368,.F.);
#493=ORIENTED_EDGE('',*,*,#362,.F.);
#494=ORIENTED_EDGE('',*,*,#370,.F.);
#495=ORIENTED_EDGE('',*,*,#349,.T.);
#496=ORIENTED_EDGE('',*,*,#369,.F.);
#497=ORIENTED_EDGE('',*,*,#361,.F.);
#498=ORIENTED_EDGE('',*,*,#360,.F.);
#499=ORIENTED_EDGE('',*,*,#371,.F.);
#500=ORIENTED_EDGE('',*,*,#350,.F.);
#501=ORIENTED_EDGE('',*,*,#370,.T.);
#502=ORIENTED_EDGE('',*,*,#371,.T.);
#503=ORIENTED_EDGE('',*,*,#359,.F.);
#504=ORIENTED_EDGE('',*,*,#372,.F.);
#505=ORIENTED_EDGE('',*,*,#373,.F.);
#506=ORIENTED_EDGE('',*,*,#374,.F.);
#507=ORIENTED_EDGE('',*,*,#375,.F.);
#508=ORIENTED_EDGE('',*,*,#328,.F.);
#509=ORIENTED_EDGE('',*,*,#333,.F.);
#510=ORIENTED_EDGE('',*,*,#376,.F.);
#511=ORIENTED_EDGE('',*,*,#377,.F.);
#512=ORIENTED_EDGE('',*,*,#378,.F.);
#513=ORIENTED_EDGE('',*,*,#351,.F.);
#514=ORIENTED_EDGE('',*,*,#335,.T.);
#515=ORIENTED_EDGE('',*,*,#352,.T.);
#516=ORIENTED_EDGE('',*,*,#378,.T.);
#517=ORIENTED_EDGE('',*,*,#379,.F.);
#518=ORIENTED_EDGE('',*,*,#336,.F.);
#519=ORIENTED_EDGE('',*,*,#379,.T.);
#520=ORIENTED_EDGE('',*,*,#377,.T.);
#521=ORIENTED_EDGE('',*,*,#380,.F.);
#522=ORIENTED_EDGE('',*,*,#337,.T.);
#523=ORIENTED_EDGE('',*,*,#380,.T.);
#524=ORIENTED_EDGE('',*,*,#376,.T.);
#525=ORIENTED_EDGE('',*,*,#332,.F.);
#526=ORIENTED_EDGE('',*,*,#338,.F.);
#527=ORIENTED_EDGE('',*,*,#326,.F.);
#528=ORIENTED_EDGE('',*,*,#375,.T.);
#529=ORIENTED_EDGE('',*,*,#381,.F.);
#530=ORIENTED_EDGE('',*,*,#339,.F.);
#531=ORIENTED_EDGE('',*,*,#381,.T.);
#532=ORIENTED_EDGE('',*,*,#374,.T.);
#533=ORIENTED_EDGE('',*,*,#382,.F.);
#534=ORIENTED_EDGE('',*,*,#340,.F.);
#535=ORIENTED_EDGE('',*,*,#382,.T.);
#536=ORIENTED_EDGE('',*,*,#373,.T.);
#537=ORIENTED_EDGE('',*,*,#383,.F.);
#538=ORIENTED_EDGE('',*,*,#341,.F.);
#539=ORIENTED_EDGE('',*,*,#383,.T.);
#540=ORIENTED_EDGE('',*,*,#372,.T.);
#541=ORIENTED_EDGE('',*,*,#358,.F.);
#542=ORIENTED_EDGE('',*,*,#356,.F.);
#543=ORIENTED_EDGE('',*,*,#353,.T.);
#544=ORIENTED_EDGE('',*,*,#343,.F.);
#545=ORIENTED_EDGE('',*,*,#357,.F.);
#546=ORIENTED_EDGE('',*,*,#329,.F.);
#547=ORIENTED_EDGE('',*,*,#302,.T.);
#548=ORIENTED_EDGE('',*,*,#384,.T.);
#549=ORIENTED_EDGE('',*,*,#309,.F.);
#550=ORIENTED_EDGE('',*,*,#324,.T.);
#551=ORIENTED_EDGE('',*,*,#301,.T.);
#552=ORIENTED_EDGE('',*,*,#305,.T.);
#553=ORIENTED_EDGE('',*,*,#310,.F.);
#554=ORIENTED_EDGE('',*,*,#384,.F.);
#555=PLANE('',#626);
#556=PLANE('',#627);
#557=PLANE('',#628);
#558=PLANE('',#629);
#559=PLANE('',#630);
#560=PLANE('',#631);
#561=PLANE('',#632);
#562=PLANE('',#633);
#563=PLANE('',#634);
#564=PLANE('',#635);
#565=PLANE('',#636);
#566=PLANE('',#637);
#567=PLANE('',#642);
#568=PLANE('',#648);
#569=PLANE('',#651);
#570=PLANE('',#652);
#571=PLANE('',#653);
#572=PLANE('',#655);
#573=PLANE('',#657);
#574=PLANE('',#663);
#575=PLANE('',#665);
#576=PLANE('',#667);
#577=PLANE('',#669);
#578=PLANE('',#670);
#579=PLANE('',#671);
#580=ADVANCED_FACE('',(#37),#555,.F.);
#581=ADVANCED_FACE('',(#38),#556,.T.);
#582=ADVANCED_FACE('',(#39,#36),#557,.T.);
#583=ADVANCED_FACE('',(#40),#558,.T.);
#584=ADVANCED_FACE('',(#41),#559,.T.);
#585=ADVANCED_FACE('',(#42),#560,.T.);
#586=ADVANCED_FACE('',(#43),#561,.T.);
#587=ADVANCED_FACE('',(#44),#562,.T.);
#588=ADVANCED_FACE('',(#45),#563,.T.);
#589=ADVANCED_FACE('',(#46),#564,.T.);
#590=ADVANCED_FACE('',(#47),#565,.T.);
#591=ADVANCED_FACE('',(#48),#566,.T.);
#592=ADVANCED_FACE('',(#49),#567,.T.);
#593=ADVANCED_FACE('',(#50),#15,.T.);
#594=ADVANCED_FACE('',(#51),#568,.T.);
#595=ADVANCED_FACE('',(#52),#569,.T.);
#596=ADVANCED_FACE('',(#53),#570,.T.);
#597=ADVANCED_FACE('',(#54),#571,.F.);
#598=ADVANCED_FACE('',(#55),#16,.F.);
#599=ADVANCED_FACE('',(#56),#572,.F.);
#600=ADVANCED_FACE('',(#57),#17,.T.);
#601=ADVANCED_FACE('',(#58),#573,.F.);
#602=ADVANCED_FACE('',(#59),#18,.F.);
#603=ADVANCED_FACE('',(#60),#574,.T.);
#604=ADVANCED_FACE('',(#61),#19,.F.);
#605=ADVANCED_FACE('',(#62),#575,.T.);
#606=ADVANCED_FACE('',(#63),#20,.T.);
#607=ADVANCED_FACE('',(#64),#576,.T.);
#608=ADVANCED_FACE('',(#65),#21,.T.);
#609=ADVANCED_FACE('',(#66),#577,.F.);
#610=ADVANCED_FACE('',(#67),#578,.T.);
#611=ADVANCED_FACE('',(#68),#579,.T.);
#612=CLOSED_SHELL('',(#580,#581,#582,#583,#584,#585,#586,#587,#588,#589,
#590,#591,#592,#593,#594,#595,#596,#597,#598,#599,#600,#601,#602,#603,#604,
#605,#606,#607,#608,#609,#610,#611));
#613=DERIVED_UNIT_ELEMENT(#615,1.);
#614=DERIVED_UNIT_ELEMENT(#1016,-3.);
#615=(
MASS_UNIT()
NAMED_UNIT(*)
SI_UNIT(.KILO.,.GRAM.)
);
#616=DERIVED_UNIT((#613,#614));
#617=MEASURE_REPRESENTATION_ITEM('density measure',
POSITIVE_RATIO_MEASURE(7850.),#616);
#618=PROPERTY_DEFINITION_REPRESENTATION(#623,#620);
#619=PROPERTY_DEFINITION_REPRESENTATION(#624,#621);
#620=REPRESENTATION('material name',(#622),#1013);
#621=REPRESENTATION('density',(#617),#1013);
#622=DESCRIPTIVE_REPRESENTATION_ITEM('Steel','Steel');
#623=PROPERTY_DEFINITION('material property','material name',#1023);
#624=PROPERTY_DEFINITION('material property','density of part',#1023);
#625=AXIS2_PLACEMENT_3D('',#837,#672,#673);
#626=AXIS2_PLACEMENT_3D('',#838,#674,#675);
#627=AXIS2_PLACEMENT_3D('',#847,#680,#681);
#628=AXIS2_PLACEMENT_3D('',#855,#686,#687);
#629=AXIS2_PLACEMENT_3D('',#869,#695,#696);
#630=AXIS2_PLACEMENT_3D('',#875,#700,#701);
#631=AXIS2_PLACEMENT_3D('',#881,#705,#706);
#632=AXIS2_PLACEMENT_3D('',#883,#708,#709);
#633=AXIS2_PLACEMENT_3D('',#885,#711,#712);
#634=AXIS2_PLACEMENT_3D('',#886,#713,#714);
#635=AXIS2_PLACEMENT_3D('',#894,#719,#720);
#636=AXIS2_PLACEMENT_3D('',#901,#725,#726);
#637=AXIS2_PLACEMENT_3D('',#907,#730,#731);
#638=AXIS2_PLACEMENT_3D('',#912,#733,#734);
#639=AXIS2_PLACEMENT_3D('',#915,#736,#737);
#640=AXIS2_PLACEMENT_3D('',#919,#739,#740);
#641=AXIS2_PLACEMENT_3D('',#923,#742,#743);
#642=AXIS2_PLACEMENT_3D('',#927,#746,#747);
#643=AXIS2_PLACEMENT_3D('',#930,#748,#749);
#644=AXIS2_PLACEMENT_3D('',#938,#753,#754);
#645=AXIS2_PLACEMENT_3D('',#942,#756,#757);
#646=AXIS2_PLACEMENT_3D('',#947,#761,#762);
#647=AXIS2_PLACEMENT_3D('',#950,#763,#764);
#648=AXIS2_PLACEMENT_3D('',#953,#767,#768);
#649=AXIS2_PLACEMENT_3D('',#960,#772,#773);
#650=AXIS2_PLACEMENT_3D('',#964,#775,#776);
#651=AXIS2_PLACEMENT_3D('',#970,#780,#781);
#652=AXIS2_PLACEMENT_3D('',#972,#783,#784);
#653=AXIS2_PLACEMENT_3D('',#974,#786,#787);
#654=AXIS2_PLACEMENT_3D('',#976,#789,#790);
#655=AXIS2_PLACEMENT_3D('',#978,#792,#793);
#656=AXIS2_PLACEMENT_3D('',#980,#795,#796);
#657=AXIS2_PLACEMENT_3D('',#982,#798,#799);
#658=AXIS2_PLACEMENT_3D('',#984,#800,#801);
#659=AXIS2_PLACEMENT_3D('',#988,#803,#804);
#660=AXIS2_PLACEMENT_3D('',#991,#806,#807);
#661=AXIS2_PLACEMENT_3D('',#994,#809,#810);
#662=AXIS2_PLACEMENT_3D('',#995,#811,#812);
#663=AXIS2_PLACEMENT_3D('',#997,#814,#815);
#664=AXIS2_PLACEMENT_3D('',#999,#817,#818);
#665=AXIS2_PLACEMENT_3D('',#1000,#819,#820);
#666=AXIS2_PLACEMENT_3D('',#1002,#822,#823);
#667=AXIS2_PLACEMENT_3D('',#1004,#825,#826);
#668=AXIS2_PLACEMENT_3D('',#1006,#828,#829);
#669=AXIS2_PLACEMENT_3D('',#1007,#830,#831);
#670=AXIS2_PLACEMENT_3D('',#1008,#832,#833);
#671=AXIS2_PLACEMENT_3D('',#1010,#835,#836);
#672=DIRECTION('axis',(0.,0.,1.));
#673=DIRECTION('refdir',(1.,0.,0.));
#674=DIRECTION('center_axis',(0.,0.,1.));
#675=DIRECTION('ref_axis',(1.,0.,0.));
#676=DIRECTION('',(0.,-1.,0.));
#677=DIRECTION('',(-1.,0.,0.));
#678=DIRECTION('',(0.,1.,0.));
#679=DIRECTION('',(1.,0.,0.));
#680=DIRECTION('center_axis',(-1.,0.,0.));
#681=DIRECTION('ref_axis',(0.,-1.,0.));
#682=DIRECTION('',(0.,-1.,0.));
#683=DIRECTION('',(0.,0.,1.));
#684=DIRECTION('',(0.,0.,1.));
#685=DIRECTION('',(0.,0.996815278536125,0.079745222282892));
#686=DIRECTION('center_axis',(0.,0.,1.));
#687=DIRECTION('ref_axis',(1.,0.,0.));
#688=DIRECTION('',(1.,0.,0.));
#689=DIRECTION('',(0.,1.,0.));
#690=DIRECTION('',(-1.,0.,0.));
#691=DIRECTION('',(1.,0.,0.));
#692=DIRECTION('',(0.,-1.,0.));
#693=DIRECTION('',(-1.,0.,0.));
#694=DIRECTION('',(0.,1.,0.));
#695=DIRECTION('center_axis',(0.,-1.,0.));
#696=DIRECTION('ref_axis',(1.,0.,0.));
#697=DIRECTION('',(1.,0.,0.));
#698=DIRECTION('',(0.,0.,1.));
#699=DIRECTION('',(0.,0.,1.));
#700=DIRECTION('center_axis',(0.,0.,1.));
#701=DIRECTION('ref_axis',(1.,0.,0.));
#702=DIRECTION('',(0.,1.,0.));
#703=DIRECTION('',(1.,0.,0.));
#704=DIRECTION('',(0.,1.,0.));
#705=DIRECTION('center_axis',(-1.,0.,0.));
#706=DIRECTION('ref_axis',(0.,-1.,0.));
#707=DIRECTION('',(0.,0.,1.));
#708=DIRECTION('center_axis',(0.,1.,0.));
#709=DIRECTION('ref_axis',(-1.,0.,0.));
#710=DIRECTION('',(0.,0.,1.));
#711=DIRECTION('center_axis',(1.,0.,0.));
#712=DIRECTION('ref_axis',(0.,1.,0.));
#713=DIRECTION('center_axis',(0.,-0.079745222282892,0.996815278536125));
#714=DIRECTION('ref_axis',(0.,-0.996815278536125,-0.079745222282892));
#715=DIRECTION('',(1.,0.,0.));
#716=DIRECTION('',(0.,-0.996815278536125,-0.079745222282892));
#717=DIRECTION('',(1.,0.,0.));
#718=DIRECTION('',(1.,0.,0.));
#719=DIRECTION('center_axis',(0.,-1.,0.));
#720=DIRECTION('ref_axis',(1.,0.,0.));
#721=DIRECTION('',(1.,0.,0.));
#722=DIRECTION('',(0.,0.,1.));
#723=DIRECTION('',(0.,0.,1.));
#724=DIRECTION('',(0.,1.015061051086E-13,1.));
#725=DIRECTION('center_axis',(0.,0.,-1.));
#726=DIRECTION('ref_axis',(0.,1.,0.));
#727=DIRECTION('',(0.,1.,0.));
#728=DIRECTION('',(-1.,0.,0.));
#729=DIRECTION('',(0.,1.,0.));
#730=DIRECTION('center_axis',(1.,0.,0.));
#731=DIRECTION('ref_axis',(0.,1.,0.));
#732=DIRECTION('',(0.,1.,0.));
#733=DIRECTION('center_axis',(1.,0.,0.));
#734=DIRECTION('ref_axis',(0.,-1.,0.));
#735=DIRECTION('',(0.,0.,1.));
#736=DIRECTION('center_axis',(1.,0.,0.));
#737=DIRECTION('ref_axis',(0.,0.,1.));
#738=DIRECTION('',(0.,-1.,0.));
#739=DIRECTION('center_axis',(1.,0.,0.));
#740=DIRECTION('ref_axis',(0.,0.,1.));
#741=DIRECTION('',(0.,0.,-1.));
#742=DIRECTION('center_axis',(1.,0.,0.));
#743=DIRECTION('ref_axis',(0.,-1.,0.));
#744=DIRECTION('',(0.,1.,0.));
#745=DIRECTION('',(0.,0.,1.));
#746=DIRECTION('center_axis',(0.,0.,1.));
#747=DIRECTION('ref_axis',(0.,-1.,0.));
#748=DIRECTION('center_axis',(0.,0.,1.));
#749=DIRECTION('ref_axis',(0.,-1.,0.));
#750=DIRECTION('',(0.,-1.,0.));
#751=DIRECTION('',(-1.,0.,0.));
#752=DIRECTION('',(0.,-1.,0.));
#753=DIRECTION('center_axis',(0.,0.,-1.));
#754=DIRECTION('ref_axis',(1.,0.,0.));
#755=DIRECTION('',(1.,0.,0.));
#756=DIRECTION('center_axis',(0.,0.,1.));
#757=DIRECTION('ref_axis',(0.,1.,0.));
#758=DIRECTION('',(0.,-1.,0.));
#759=DIRECTION('',(-1.,0.,0.));
#760=DIRECTION('',(-1.,0.,0.));
#761=DIRECTION('center_axis',(0.,0.,-1.));
#762=DIRECTION('ref_axis',(1.,0.,0.));
#763=DIRECTION('center_axis',(0.,0.,-1.));
#764=DIRECTION('ref_axis',(1.,0.,0.));
#765=DIRECTION('',(0.,0.,-1.));
#766=DIRECTION('',(-3.806478941572E-14,0.,-1.));
#767=DIRECTION('center_axis',(0.,0.,-1.));
#768=DIRECTION('ref_axis',(0.,1.,0.));
#769=DIRECTION('',(-1.,0.,0.));
#770=DIRECTION('',(-1.,0.,0.));
#771=DIRECTION('',(0.,1.,0.));
#772=DIRECTION('center_axis',(0.,0.,-1.));
#773=DIRECTION('ref_axis',(-1.,0.,0.));
#774=DIRECTION('',(1.,0.,0.));
#775=DIRECTION('center_axis',(0.,0.,1.));
#776=DIRECTION('ref_axis',(0.,-1.,0.));
#777=DIRECTION('',(0.,-1.,0.));
#778=DIRECTION('',(-1.,0.,0.));
#779=DIRECTION('',(0.,1.,0.));
#780=DIRECTION('center_axis',(1.,0.,0.));
#781=DIRECTION('ref_axis',(0.,0.,-1.));
#782=DIRECTION('',(0.,0.,1.));
#783=DIRECTION('center_axis',(0.,1.,0.));
#784=DIRECTION('ref_axis',(0.,0.,1.));
#785=DIRECTION('',(0.,0.,1.));
#786=DIRECTION('center_axis',(1.,0.,0.));
#787=DIRECTION('ref_axis',(0.,-1.,0.));
#788=DIRECTION('',(0.,0.,1.));
#789=DIRECTION('center_axis',(0.,0.,1.));
#790=DIRECTION('ref_axis',(0.,-1.,0.));
#791=DIRECTION('',(0.,0.,1.));
#792=DIRECTION('center_axis',(0.,-1.,0.));
#793=DIRECTION('ref_axis',(-1.,0.,0.));
#794=DIRECTION('',(0.,0.,-1.));
#795=DIRECTION('center_axis',(0.,0.,-1.));
#796=DIRECTION('ref_axis',(-1.,0.,0.));
#797=DIRECTION('',(0.,0.,-1.));
#798=DIRECTION('center_axis',(1.,0.,0.));
#799=DIRECTION('ref_axis',(0.,0.,-1.));
#800=DIRECTION('center_axis',(1.,0.,0.));
#801=DIRECTION('ref_axis',(0.,-1.,0.));
#802=DIRECTION('',(0.,0.,-1.));
#803=DIRECTION('center_axis',(1.,0.,0.));
#804=DIRECTION('ref_axis',(0.,0.,1.));
#805=DIRECTION('',(0.,-1.,0.));
#806=DIRECTION('center_axis',(-1.,0.,0.));
#807=DIRECTION('ref_axis',(0.,-1.,0.));
#808=DIRECTION('',(0.,0.,1.));
#809=DIRECTION('center_axis',(-1.,0.,0.));
#810=DIRECTION('ref_axis',(0.,0.,-1.));
#811=DIRECTION('center_axis',(1.,0.,0.));
#812=DIRECTION('ref_axis',(0.,0.,-1.));
#813=DIRECTION('',(-1.,0.,0.));
#814=DIRECTION('center_axis',(0.,1.,0.));
#815=DIRECTION('ref_axis',(0.,0.,1.));
#816=DIRECTION('',(-1.,0.,0.));
#817=DIRECTION('center_axis',(1.,0.,0.));
#818=DIRECTION('ref_axis',(0.,0.,-1.));
#819=DIRECTION('center_axis',(0.,0.,1.));
#820=DIRECTION('ref_axis',(0.,-1.,0.));
#821=DIRECTION('',(-1.,0.,0.));
#822=DIRECTION('center_axis',(1.,0.,0.));
#823=DIRECTION('ref_axis',(0.,0.,-1.));
#824=DIRECTION('',(-1.,0.,0.));
#825=DIRECTION('center_axis',(0.,-1.,0.));
#826=DIRECTION('ref_axis',(0.,0.,-1.));
#827=DIRECTION('',(-1.,0.,0.));
#828=DIRECTION('center_axis',(1.,0.,0.));
#829=DIRECTION('ref_axis',(0.,0.,-1.));
#830=DIRECTION('center_axis',(0.,1.,0.));
#831=DIRECTION('ref_axis',(0.,0.,1.));
#832=DIRECTION('center_axis',(1.,0.,0.));
#833=DIRECTION('ref_axis',(0.,1.,0.));
#834=DIRECTION('',(0.,0.,1.));
#835=DIRECTION('center_axis',(0.,1.,0.));
#836=DIRECTION('ref_axis',(-1.,0.,0.));
#837=CARTESIAN_POINT('',(0.,0.,0.));
#838=CARTESIAN_POINT('Origin',(0.,0.,0.));
#839=CARTESIAN_POINT('',(-22.895,32.465,0.));
#840=CARTESIAN_POINT('',(-22.895,-37.955,0.));
#841=CARTESIAN_POINT('',(-22.895,32.465,0.));
#842=CARTESIAN_POINT('',(22.905,32.465,0.));
#843=CARTESIAN_POINT('',(22.905,32.465,0.));
#844=CARTESIAN_POINT('',(22.905,-37.955,0.));
#845=CARTESIAN_POINT('',(22.905,-37.955,0.));
#846=CARTESIAN_POINT('',(-22.895,-37.955,0.));
#847=CARTESIAN_POINT('Origin',(-22.895,32.465,0.));
#848=CARTESIAN_POINT('',(-22.895,32.465,1.));
#849=CARTESIAN_POINT('',(-22.895,-32.955,1.));
#850=CARTESIAN_POINT('',(-22.895,32.465,1.));
#851=CARTESIAN_POINT('',(-22.895,32.465,0.));
#852=CARTESIAN_POINT('',(-22.895,-37.955,0.6));
#853=CARTESIAN_POINT('',(-22.895,-37.955,0.));
#854=CARTESIAN_POINT('',(-22.895,-37.955,0.6));
#855=CARTESIAN_POINT('Origin',(0.,0.,1.));
#856=CARTESIAN_POINT('',(22.905,-32.955,1.));
#857=CARTESIAN_POINT('',(-22.895,-32.955,1.));
#858=CARTESIAN_POINT('',(22.905,32.465,1.));
#859=CARTESIAN_POINT('',(22.905,-32.955,1.));
#860=CARTESIAN_POINT('',(22.905,32.465,1.));
#861=CARTESIAN_POINT('',(-19.095,28.645,1.));
#862=CARTESIAN_POINT('',(19.095,28.645,1.));
#863=CARTESIAN_POINT('',(-19.095,28.645,1.));
#864=CARTESIAN_POINT('',(19.095,-28.645,1.));
#865=CARTESIAN_POINT('',(19.095,28.645,1.));
#866=CARTESIAN_POINT('',(-19.095,-28.645,1.));
#867=CARTESIAN_POINT('',(19.095,-28.645,1.));
#868=CARTESIAN_POINT('',(-19.095,-28.645,1.));
#869=CARTESIAN_POINT('Origin',(-19.095,28.645,0.));
#870=CARTESIAN_POINT('',(-19.095,28.645,0.975));
#871=CARTESIAN_POINT('',(19.095,28.645,0.975));
#872=CARTESIAN_POINT('',(-19.095,28.645,0.975));
#873=CARTESIAN_POINT('',(19.095,28.645,0.975));
#874=CARTESIAN_POINT('',(-19.095,28.645,0.975));
#875=CARTESIAN_POINT('Origin',(0.,0.,0.975));
#876=CARTESIAN_POINT('',(-19.095,-28.645,0.975));
#877=CARTESIAN_POINT('',(-19.095,-28.645,0.975));
#878=CARTESIAN_POINT('',(19.095,-28.645,0.975));
#879=CARTESIAN_POINT('',(-19.095,-28.645,0.975));
#880=CARTESIAN_POINT('',(19.095,-28.645,0.975));
#881=CARTESIAN_POINT('Origin',(19.095,28.645,0.));
#882=CARTESIAN_POINT('',(19.095,-28.645,0.975));
#883=CARTESIAN_POINT('Origin',(19.095,-28.645,0.));
#884=CARTESIAN_POINT('',(-19.095,-28.645,0.975));
#885=CARTESIAN_POINT('Origin',(-19.095,-28.645,0.));
#886=CARTESIAN_POINT('Origin',(0.004999999999995,-35.455,0.8));
#887=CARTESIAN_POINT('',(5.365,-37.955,0.6));
#888=CARTESIAN_POINT('',(22.905,-37.955,0.6));
#889=CARTESIAN_POINT('',(5.365,-37.955,0.6));
#890=CARTESIAN_POINT('',(22.905,-32.955,1.));
#891=CARTESIAN_POINT('',(-7.635,-37.955,0.6));
#892=CARTESIAN_POINT('',(-22.895,-37.955,0.6));
#893=CARTESIAN_POINT('',(-7.635,-37.955,0.6));
#894=CARTESIAN_POINT('Origin',(-22.895,-37.955,0.));
#895=CARTESIAN_POINT('',(-7.635,-37.955,0.46));
#896=CARTESIAN_POINT('',(5.365,-37.955,0.46));
#897=CARTESIAN_POINT('',(-7.635,-37.955,0.46));
#898=CARTESIAN_POINT('',(-7.635,-37.955,0.46));
#899=CARTESIAN_POINT('',(22.905,-37.955,0.));
#900=CARTESIAN_POINT('',(5.365,-37.955,0.46));
#901=CARTESIAN_POINT('Origin',(15.365,-38.015,0.46));
#902=CARTESIAN_POINT('',(5.365,-38.015,0.46));
#903=CARTESIAN_POINT('',(5.365,-38.015,0.46));
#904=CARTESIAN_POINT('',(-7.635,-38.015,0.46));
#905=CARTESIAN_POINT('',(5.365,-38.015,0.46));
#906=CARTESIAN_POINT('',(-7.635,-38.015,0.46));
#907=CARTESIAN_POINT('Origin',(5.365,0.,1.));
#908=CARTESIAN_POINT('',(5.365,-38.015,-2.7));
#909=CARTESIAN_POINT('',(5.365,-37.74542021966,-2.7));
#910=CARTESIAN_POINT('',(5.365,-38.015,-2.7));
#911=CARTESIAN_POINT('',(5.365,-38.615,-2.1));
#912=CARTESIAN_POINT('Origin',(5.365,-38.015,-2.1));
#913=CARTESIAN_POINT('',(5.365,-38.615,-0.14));
#914=CARTESIAN_POINT('',(5.365,-38.615,-2.1));
#915=CARTESIAN_POINT('Origin',(5.365,-38.015,-0.14));
#916=CARTESIAN_POINT('',(5.365,-38.015,0.6));
#917=CARTESIAN_POINT('',(5.365,-37.955,0.6));
#918=CARTESIAN_POINT('',(5.365,-38.755,-0.14));
#919=CARTESIAN_POINT('Origin',(5.365,-38.015,-0.14));
#920=CARTESIAN_POINT('',(5.365,-38.755,-2.1));
#921=CARTESIAN_POINT('',(5.365,-38.755,-0.14));
#922=CARTESIAN_POINT('',(5.365,-38.015,-2.84));
#923=CARTESIAN_POINT('Origin',(5.365,-38.015,-2.1));
#924=CARTESIAN_POINT('',(5.365,-37.74542021966,-2.84));
#925=CARTESIAN_POINT('',(5.365,-38.015,-2.84));
#926=CARTESIAN_POINT('',(5.365,-37.74542021966,-2.84));
#927=CARTESIAN_POINT('Origin',(15.365,-20.,-2.7));
#928=CARTESIAN_POINT('',(14.865,-37.74542021966,-2.7));
#929=CARTESIAN_POINT('',(15.365,-37.24542021966,-2.7));
#930=CARTESIAN_POINT('Origin',(14.865,-37.24542021966,-2.7));
#931=CARTESIAN_POINT('',(15.365,-20.,-2.7));
#932=CARTESIAN_POINT('',(15.365,-20.,-2.7));
#933=CARTESIAN_POINT('',(2.865,-20.,-2.7));
#934=CARTESIAN_POINT('',(15.365,-20.,-2.7));
#935=CARTESIAN_POINT('',(2.865,-29.5,-2.7));
#936=CARTESIAN_POINT('',(2.865,-20.,-2.7));
#937=CARTESIAN_POINT('',(1.865,-30.5,-2.7));
#938=CARTESIAN_POINT('Origin',(1.865,-29.5,-2.7));
#939=CARTESIAN_POINT('',(-7.135,-30.5,-2.7));
#940=CARTESIAN_POINT('',(-7.135,-30.5,-2.7));
#941=CARTESIAN_POINT('',(-7.635,-31.,-2.7));
#942=CARTESIAN_POINT('Origin',(-7.135,-31.,-2.7));
#943=CARTESIAN_POINT('',(-7.635,-38.015,-2.7));
#944=CARTESIAN_POINT('',(-7.635,-31.,-2.7));
#945=CARTESIAN_POINT('',(5.365,-38.015,-2.7));
#946=CARTESIAN_POINT('',(14.865,-37.74542021966,-2.7));
#947=CARTESIAN_POINT('Origin',(14.865,-37.24542021966,6.005824));
#948=CARTESIAN_POINT('',(15.365,-37.24542021966,-2.84));
#949=CARTESIAN_POINT('',(14.865,-37.74542021966,-2.84));
#950=CARTESIAN_POINT('Origin',(14.865,-37.24542021966,-2.84));
#951=CARTESIAN_POINT('',(15.365,-37.24542021966,-2.7));
#952=CARTESIAN_POINT('',(14.865,-37.74542021966,-2.7));
#953=CARTESIAN_POINT('Origin',(15.365,-38.015,-2.84));
#954=CARTESIAN_POINT('',(14.865,-37.74542021966,-2.84));
#955=CARTESIAN_POINT('',(-7.635,-38.015,-2.84));
#956=CARTESIAN_POINT('',(5.365,-38.015,-2.84));
#957=CARTESIAN_POINT('',(-7.635,-31.,-2.84));
#958=CARTESIAN_POINT('',(-7.635,-38.015,-2.84));
#959=CARTESIAN_POINT('',(-7.135,-30.5,-2.84));
#960=CARTESIAN_POINT('Origin',(-7.135,-31.,-2.84));
#961=CARTESIAN_POINT('',(1.865,-30.5,-2.84));
#962=CARTESIAN_POINT('',(-7.135,-30.5,-2.84));
#963=CARTESIAN_POINT('',(2.865,-29.5,-2.84));
#964=CARTESIAN_POINT('Origin',(1.865,-29.5,-2.84));
#965=CARTESIAN_POINT('',(2.865,-20.,-2.84));
#966=CARTESIAN_POINT('',(2.865,-20.,-2.84));
#967=CARTESIAN_POINT('',(15.365,-20.,-2.84));
#968=CARTESIAN_POINT('',(15.365,-20.,-2.84));
#969=CARTESIAN_POINT('',(15.365,-37.24542021966,-2.84));
#970=CARTESIAN_POINT('Origin',(15.365,0.,1.));
#971=CARTESIAN_POINT('',(15.365,-20.,-2.84));
#972=CARTESIAN_POINT('Origin',(15.365,-20.,-2.84));
#973=CARTESIAN_POINT('',(2.865,-20.,-2.84));
#974=CARTESIAN_POINT('Origin',(2.865,-20.,-2.84));
#975=CARTESIAN_POINT('',(2.865,-29.5,-2.84));
#976=CARTESIAN_POINT('Origin',(1.865,-29.5,-7.845824));
#977=CARTESIAN_POINT('',(1.865,-30.5,-2.84));
#978=CARTESIAN_POINT('Origin',(2.865,-30.5,-2.84));
#979=CARTESIAN_POINT('',(-7.135,-30.5,-2.7));
#980=CARTESIAN_POINT('Origin',(-7.135,-31.,6.005824));
#981=CARTESIAN_POINT('',(-7.635,-31.,-2.7));
#982=CARTESIAN_POINT('Origin',(-7.635,0.,1.));
#983=CARTESIAN_POINT('',(-7.635,-38.755,-2.1));
#984=CARTESIAN_POINT('Origin',(-7.635,-38.015,-2.1));
#985=CARTESIAN_POINT('',(-7.635,-38.755,-0.14));
#986=CARTESIAN_POINT('',(-7.635,-38.755,-0.14));
#987=CARTESIAN_POINT('',(-7.635,-38.015,0.6));
#988=CARTESIAN_POINT('Origin',(-7.635,-38.015,-0.14));
#989=CARTESIAN_POINT('',(-7.635,-37.955,0.6));
#990=CARTESIAN_POINT('',(-7.635,-38.615,-0.14));
#991=CARTESIAN_POINT('Origin',(-7.635,-38.015,-0.14));
#992=CARTESIAN_POINT('',(-7.635,-38.615,-2.1));
#993=CARTESIAN_POINT('',(-7.635,-38.615,-2.1));
#994=CARTESIAN_POINT('Origin',(-7.635,-38.015,-2.1));
#995=CARTESIAN_POINT('Origin',(15.365,-38.015,-2.1));
#996=CARTESIAN_POINT('',(5.365,-38.615,-2.1));
#997=CARTESIAN_POINT('Origin',(15.365,-38.615,-2.1));
#998=CARTESIAN_POINT('',(5.365,-38.615,-0.14));
#999=CARTESIAN_POINT('Origin',(15.365,-38.015,-0.14));
#1000=CARTESIAN_POINT('Origin',(15.365,-36.15442667435,0.6));
#1001=CARTESIAN_POINT('',(5.365,-38.015,0.6));
#1002=CARTESIAN_POINT('Origin',(15.365,-38.015,-0.14));
#1003=CARTESIAN_POINT('',(5.365,-38.755,-0.14));
#1004=CARTESIAN_POINT('Origin',(15.365,-38.755,-0.14));
#1005=CARTESIAN_POINT('',(5.365,-38.755,-2.1));
#1006=CARTESIAN_POINT('Origin',(15.365,-38.015,-2.1));
#1007=CARTESIAN_POINT('Origin',(15.365,-37.74542021966,-2.84));
#1008=CARTESIAN_POINT('Origin',(22.905,-37.955,0.));
#1009=CARTESIAN_POINT('',(22.905,32.465,0.));
#1010=CARTESIAN_POINT('Origin',(22.905,32.465,0.));
#1011=UNCERTAINTY_MEASURE_WITH_UNIT(LENGTH_MEASURE(0.01),#1015,
'DISTANCE_ACCURACY_VALUE',
'Maximum model space distance between geometric entities at asserted c
onnectivities');
#1012=UNCERTAINTY_MEASURE_WITH_UNIT(LENGTH_MEASURE(0.01),#1015,
'DISTANCE_ACCURACY_VALUE',
'Maximum model space distance between geometric entities at asserted c
onnectivities');
#1013=(
GEOMETRIC_REPRESENTATION_CONTEXT(3)
GLOBAL_UNCERTAINTY_ASSIGNED_CONTEXT((#1011))
GLOBAL_UNIT_ASSIGNED_CONTEXT((#1015,#1017,#1018))
REPRESENTATION_CONTEXT('','3D')
);
#1014=(
GEOMETRIC_REPRESENTATION_CONTEXT(3)
GLOBAL_UNCERTAINTY_ASSIGNED_CONTEXT((#1012))
GLOBAL_UNIT_ASSIGNED_CONTEXT((#1015,#1017,#1018))
REPRESENTATION_CONTEXT('','3D')
);
#1015=(
LENGTH_UNIT()
NAMED_UNIT(*)
SI_UNIT(.MILLI.,.METRE.)
);
#1016=(
LENGTH_UNIT()
NAMED_UNIT(*)
SI_UNIT($,.METRE.)
);
#1017=(
NAMED_UNIT(*)
PLANE_ANGLE_UNIT()
SI_UNIT($,.RADIAN.)
);
#1018=(
NAMED_UNIT(*)
SI_UNIT($,.STERADIAN.)
SOLID_ANGLE_UNIT()
);
#1019=SHAPE_DEFINITION_REPRESENTATION(#1020,#1021);
#1020=PRODUCT_DEFINITION_SHAPE('',$,#1023);
#1021=SHAPE_REPRESENTATION('',(#625),#1013);
#1022=PRODUCT_DEFINITION_CONTEXT('part definition',#1027,'design');
#1023=PRODUCT_DEFINITION('2_7INCH-E_PAPER','2_7INCH-E_PAPER',#1024,#1022);
#1024=PRODUCT_DEFINITION_FORMATION('',$,#1029);
#1025=PRODUCT_RELATED_PRODUCT_CATEGORY('2_7INCH-E_PAPER',
'2_7INCH-E_PAPER',(#1029));
#1026=APPLICATION_PROTOCOL_DEFINITION('international standard',
'automotive_design',2009,#1027);
#1027=APPLICATION_CONTEXT(
'Core Data for Automotive Mechanical Design Process');
#1028=PRODUCT_CONTEXT('part definition',#1027,'mechanical');
#1029=PRODUCT('2_7INCH-E_PAPER','2_7INCH-E_PAPER','NOT SPECIFIED',(#1028));
#1030=PRESENTATION_STYLE_ASSIGNMENT((#1032));
#1031=PRESENTATION_STYLE_ASSIGNMENT((#1033));
#1032=SURFACE_STYLE_USAGE(.BOTH.,#1034);
#1033=SURFACE_STYLE_USAGE(.BOTH.,#1035);
#1034=SURFACE_SIDE_STYLE('',(#1036));
#1035=SURFACE_SIDE_STYLE('',(#1037));
#1036=SURFACE_STYLE_FILL_AREA(#1038);
#1037=SURFACE_STYLE_FILL_AREA(#1039);
#1038=FILL_AREA_STYLE('Steel - Satin',(#1040));
#1039=FILL_AREA_STYLE('Opaque(208,208,208)',(#1041));
#1040=FILL_AREA_STYLE_COLOUR('Steel - Satin',#1042);
#1041=FILL_AREA_STYLE_COLOUR('Opaque(208,208,208)',#1043);
#1042=COLOUR_RGB('Steel - Satin',0.627450980392157,0.627450980392157,0.627450980392157);
#1043=COLOUR_RGB('Opaque(208,208,208)',0.815686274509804,0.815686274509804,
0.815686274509804);
ENDSEC;
END-ISO-10303-21;
